<?xml version="1.0" encoding="UTF-8" standalone="no"?>
<svg
   xmlns:dc="http://purl.org/dc/elements/1.1/"
   xmlns:cc="http://creativecommons.org/ns#"
   xmlns:rdf="http://www.w3.org/1999/02/22-rdf-syntax-ns#"
   xmlns:svg="http://www.w3.org/2000/svg"
   xmlns="http://www.w3.org/2000/svg"
   xmlns:sodipodi="http://sodipodi.sourceforge.net/DTD/sodipodi-0.dtd"
   xmlns:inkscape="http://www.inkscape.org/namespaces/inkscape"
   width="150"
   height="150"
   viewBox="0 0 39.6875 39.6875"
   version="1.1"
   id="svg896"
   inkscape:version="1.0.2 (e86c870879, 2021-01-15)"
   sodipodi:docname="flower.svg">
  <defs
     id="defs890" />
  <sodipodi:namedview
     id="base"
     pagecolor="#ffffff"
     bordercolor="#666666"
     borderopacity="1.0"
     inkscape:pageopacity="0.0"
     inkscape:pageshadow="2"
     inkscape:zoom="4.1577726"
     inkscape:cx="69.761743"
     inkscape:cy="28.199994"
     inkscape:document-units="px"
     inkscape:current-layer="path944-7"
     inkscape:document-rotation="0"
     showgrid="false"
     units="px"
     inkscape:window-width="1916"
     inkscape:window-height="1041"
     inkscape:window-x="0"
     inkscape:window-y="18"
     inkscape:window-maximized="0" />
  <metadata
     id="metadata893">
    <rdf:RDF>
      <cc:Work
         rdf:about="">
        <dc:format>image/svg+xml</dc:format>
        <dc:type
           rdf:resource="http://purl.org/dc/dcmitype/StillImage" />
        <dc:title></dc:title>
      </cc:Work>
    </rdf:RDF>
  </metadata>
  <g
     inkscape:label="Layer 1"
     inkscape:groupmode="layer"
     id="layer1">
    <g
       id="path1622-7"
       style="opacity:1">
      <path
         style="color:#000000;font-style:normal;font-variant:normal;font-weight:normal;font-stretch:normal;font-size:medium;line-height:normal;font-family:sans-serif;font-variant-ligatures:normal;font-variant-position:normal;font-variant-caps:normal;font-variant-numeric:normal;font-variant-alternates:normal;font-variant-east-asian:normal;font-feature-settings:normal;font-variation-settings:normal;text-indent:0;text-align:start;text-decoration:none;text-decoration-line:none;text-decoration-style:solid;text-decoration-color:#000000;letter-spacing:normal;word-spacing:normal;text-transform:none;writing-mode:lr-tb;direction:ltr;text-orientation:mixed;dominant-baseline:auto;baseline-shift:baseline;text-anchor:start;white-space:normal;shape-padding:0;shape-margin:0;inline-size:0;clip-rule:nonzero;display:inline;overflow:visible;visibility:visible;isolation:auto;mix-blend-mode:normal;color-interpolation:sRGB;color-interpolation-filters:linearRGB;solid-color:#000000;solid-opacity:1;vector-effect:none;fill:#000000;fill-opacity:1;fill-rule:nonzero;stroke:none;stroke-width:0.396875;stroke-linecap:round;stroke-linejoin:round;stroke-miterlimit:4;stroke-dasharray:none;stroke-dashoffset:0;stroke-opacity:1.0;color-rendering:auto;image-rendering:auto;shape-rendering:auto;text-rendering:auto;enable-background:accumulate;stop-color:#000000;stop-opacity:1;"
         d="m 19.853737,34.5422 c 0,0 -6.640376,1.637124 -7.516269,2.889587 -0.875896,1.252462 0.862895,-8.47223 5.226327,-5.157789 4.36343,3.314443 2.289942,2.268202 2.289942,2.268202 z"
         id="path1816" />
      <path
         style="color:#000000;font-style:normal;font-variant:normal;font-weight:normal;font-stretch:normal;font-size:medium;line-height:normal;font-family:sans-serif;font-variant-ligatures:normal;font-variant-position:normal;font-variant-caps:normal;font-variant-numeric:normal;font-variant-alternates:normal;font-variant-east-asian:normal;font-feature-settings:normal;font-variation-settings:normal;text-indent:0;text-align:start;text-decoration:none;text-decoration-line:none;text-decoration-style:solid;text-decoration-color:#000000;letter-spacing:normal;word-spacing:normal;text-transform:none;writing-mode:lr-tb;direction:ltr;text-orientation:mixed;dominant-baseline:auto;baseline-shift:baseline;text-anchor:start;white-space:normal;shape-padding:0;shape-margin:0;inline-size:0;clip-rule:nonzero;display:inline;overflow:visible;visibility:visible;isolation:auto;mix-blend-mode:normal;color-interpolation:sRGB;color-interpolation-filters:linearRGB;solid-color:#000000;solid-opacity:1;vector-effect:none;fill:#ffffff;fill-opacity:1;fill-rule:nonzero;stroke:none;stroke-linecap:round;stroke-linejoin:round;stroke-miterlimit:4;stroke-dasharray:none;stroke-dashoffset:0;stroke-opacity:1.0;color-rendering:auto;image-rendering:auto;shape-rendering:auto;text-rendering:auto;enable-background:accumulate;stop-color:#000000;stop-opacity:1;"
         d="M 16.068359 31.404297 C 15.563684 31.346484 15.097666 31.453464 14.685547 31.683594 C 13.861308 32.143854 13.251549 33.045451 12.806641 33.996094 C 12.361732 34.946737 12.085998 35.951132 11.974609 36.65625 C 11.918915 37.008809 11.898064 37.27437 11.9375 37.472656 C 11.947359 37.522228 11.960064 37.570488 11.994141 37.623047 C 12.028217 37.675606 12.106113 37.737985 12.195312 37.742188 C 12.284512 37.74639 12.345028 37.706054 12.388672 37.669922 C 12.432316 37.63379 12.466198 37.593257 12.5 37.544922 C 12.663123 37.311668 13.226241 36.957553 13.960938 36.632812 C 14.695634 36.308072 15.603511 35.988695 16.484375 35.707031 C 18.214832 35.153703 19.782611 34.766107 19.839844 34.751953 C 19.886653 34.774692 19.938226 34.802138 20.041016 34.839844 C 20.111863 34.865832 20.179336 34.890625 20.265625 34.896484 C 20.30877 34.899414 20.364751 34.905566 20.439453 34.857422 C 20.514156 34.809278 20.55304 34.68507 20.541016 34.617188 C 20.516967 34.481422 20.45356 34.424299 20.353516 34.314453 C 20.253471 34.204608 20.105427 34.063801 19.892578 33.876953 C 19.466881 33.503257 18.776475 32.945382 17.683594 32.115234 C 17.117027 31.684873 16.573035 31.46211 16.068359 31.404297 z M 16.03125 31.785156 C 16.453432 31.834821 16.919068 32.033392 17.443359 32.431641 C 18.532193 33.258714 19.218121 33.81346 19.630859 34.175781 C 19.718812 34.25299 19.748302 34.28927 19.8125 34.349609 A 0.19845734 0.19845734 0 0 0 19.806641 34.349609 C 19.806641 34.349609 18.140714 34.759775 16.363281 35.328125 C 15.474565 35.6123 14.557501 35.935056 13.800781 36.269531 C 13.119315 36.570744 12.641286 36.873206 12.337891 37.214844 C 12.335539 37.090031 12.328781 36.961872 12.367188 36.71875 C 12.471833 36.056319 12.740284 35.073729 13.166016 34.164062 C 13.591747 33.254396 14.179231 32.423044 14.880859 32.03125 C 15.231673 31.835353 15.609068 31.735491 16.03125 31.785156 z "
         id="path1818" />
    </g>
    <g
       id="path1618-4"
       style="opacity:1">
      <path
         style="color:#000000;font-style:normal;font-variant:normal;font-weight:normal;font-stretch:normal;font-size:medium;line-height:normal;font-family:sans-serif;font-variant-ligatures:normal;font-variant-position:normal;font-variant-caps:normal;font-variant-numeric:normal;font-variant-alternates:normal;font-variant-east-asian:normal;font-feature-settings:normal;font-variation-settings:normal;text-indent:0;text-align:start;text-decoration:none;text-decoration-line:none;text-decoration-style:solid;text-decoration-color:#000000;letter-spacing:normal;word-spacing:normal;text-transform:none;writing-mode:lr-tb;direction:ltr;text-orientation:mixed;dominant-baseline:auto;baseline-shift:baseline;text-anchor:start;white-space:normal;shape-padding:0;shape-margin:0;inline-size:0;clip-rule:nonzero;display:inline;overflow:visible;visibility:visible;isolation:auto;mix-blend-mode:normal;color-interpolation:sRGB;color-interpolation-filters:linearRGB;solid-color:#000000;solid-opacity:1;vector-effect:none;fill:#000000;fill-opacity:1;fill-rule:nonzero;stroke:none;stroke-width:0.396875;stroke-linecap:round;stroke-linejoin:round;stroke-miterlimit:4;stroke-dasharray:none;stroke-dashoffset:0;stroke-opacity:1.0;color-rendering:auto;image-rendering:auto;shape-rendering:auto;text-rendering:auto;enable-background:accumulate;stop-color:#000000;stop-opacity:1;"
         d="m 21.173453,29.585745 c 0.65209,-3.479804 0.987288,-8.710577 1.12166,-10.598404 0.134373,-1.887827 0.563242,-2.805573 0.771978,-2.086447 0.208736,0.719126 0.489538,4.891812 0.489538,6.216946 0,1.325134 -2.383176,6.467905 -2.383176,6.467905 z"
         id="path1822" />
      <path
         style="color:#000000;font-style:normal;font-variant:normal;font-weight:normal;font-stretch:normal;font-size:medium;line-height:normal;font-family:sans-serif;font-variant-ligatures:normal;font-variant-position:normal;font-variant-caps:normal;font-variant-numeric:normal;font-variant-alternates:normal;font-variant-east-asian:normal;font-feature-settings:normal;font-variation-settings:normal;text-indent:0;text-align:start;text-decoration:none;text-decoration-line:none;text-decoration-style:solid;text-decoration-color:#000000;letter-spacing:normal;word-spacing:normal;text-transform:none;writing-mode:lr-tb;direction:ltr;text-orientation:mixed;dominant-baseline:auto;baseline-shift:baseline;text-anchor:start;white-space:normal;shape-padding:0;shape-margin:0;inline-size:0;clip-rule:nonzero;display:inline;overflow:visible;visibility:visible;isolation:auto;mix-blend-mode:normal;color-interpolation:sRGB;color-interpolation-filters:linearRGB;solid-color:#000000;solid-opacity:1;vector-effect:none;fill:#ffffff;fill-opacity:1;fill-rule:nonzero;stroke:none;stroke-linecap:round;stroke-linejoin:round;stroke-miterlimit:4;stroke-dasharray:none;stroke-dashoffset:0;stroke-opacity:1.0;color-rendering:auto;image-rendering:auto;shape-rendering:auto;text-rendering:auto;enable-background:accumulate;stop-color:#000000;stop-opacity:1;"
         d="M 22.837891 16.462891 C 22.72314 16.485964 22.658197 16.558316 22.605469 16.630859 C 22.552741 16.703403 22.51021 16.788857 22.46875 16.892578 C 22.30291 17.307464 22.165743 18.016101 22.097656 18.972656 C 21.963101 20.863065 21.626242 26.092308 20.978516 29.548828 A 0.19845734 0.19845734 0 0 0 21.353516 29.669922 C 21.353516 29.669922 21.95102 28.38007 22.548828 26.923828 C 22.847732 26.195707 23.147281 25.425492 23.373047 24.75 C 23.598813 24.074508 23.755859 23.507951 23.755859 23.117188 C 23.755859 22.440604 23.684421 21.069486 23.587891 19.767578 C 23.539626 19.116624 23.485744 18.485256 23.429688 17.96875 C 23.373631 17.452244 23.320997 17.063384 23.257812 16.845703 C 23.22761 16.741652 23.194193 16.65647 23.134766 16.582031 C 23.075338 16.507592 22.952641 16.439817 22.837891 16.462891 z M 22.876953 16.962891 C 22.91813 17.106824 22.980157 17.503001 23.035156 18.009766 C 23.090457 18.519303 23.143379 19.149125 23.191406 19.796875 C 23.287461 21.092375 23.357422 22.468637 23.357422 23.117188 C 23.357422 23.388991 23.217174 23.963528 22.996094 24.625 C 22.775014 25.286472 22.47853 26.050224 22.181641 26.773438 C 21.844092 27.595696 21.734465 27.813398 21.505859 28.324219 C 22.014417 24.944884 22.374408 20.656668 22.492188 19.001953 C 22.558474 18.070681 22.703518 17.377178 22.837891 17.041016 C 22.852624 17.004156 22.863199 16.990319 22.876953 16.962891 z "
         id="path1824" />
    </g>
    <g
       id="path1620-2"
       style="opacity:1">
      <path
         style="color:#000000;font-style:normal;font-variant:normal;font-weight:normal;font-stretch:normal;font-size:medium;line-height:normal;font-family:sans-serif;font-variant-ligatures:normal;font-variant-position:normal;font-variant-caps:normal;font-variant-numeric:normal;font-variant-alternates:normal;font-variant-east-asian:normal;font-feature-settings:normal;font-variation-settings:normal;text-indent:0;text-align:start;text-decoration:none;text-decoration-line:none;text-decoration-style:solid;text-decoration-color:#000000;letter-spacing:normal;word-spacing:normal;text-transform:none;writing-mode:lr-tb;direction:ltr;text-orientation:mixed;dominant-baseline:auto;baseline-shift:baseline;text-anchor:start;white-space:normal;shape-padding:0;shape-margin:0;inline-size:0;clip-rule:nonzero;display:inline;overflow:visible;visibility:visible;isolation:auto;mix-blend-mode:normal;color-interpolation:sRGB;color-interpolation-filters:linearRGB;solid-color:#000000;solid-opacity:1;vector-effect:none;fill:#000000;fill-opacity:1;fill-rule:nonzero;stroke:none;stroke-width:0.396875;stroke-linecap:round;stroke-linejoin:round;stroke-miterlimit:4;stroke-dasharray:none;stroke-dashoffset:0;stroke-opacity:1.0;color-rendering:auto;image-rendering:auto;shape-rendering:auto;text-rendering:auto;enable-background:accumulate;stop-color:#000000;stop-opacity:1;"
         d="m 19.867052,37.283867 c 0,0 -1.37638,-2.775479 -1.9312,-3.944929 -0.554819,-1.16945 -1.063019,-1.925578 -1.584237,-1.967178 -0.521218,-0.0416 5.253161,2.731284 5.856016,3.645377 0.602854,0.914093 -2.340579,2.26673 -2.340579,2.26673 z"
         id="path1828" />
      <path
         style="color:#000000;font-style:normal;font-variant:normal;font-weight:normal;font-stretch:normal;font-size:medium;line-height:normal;font-family:sans-serif;font-variant-ligatures:normal;font-variant-position:normal;font-variant-caps:normal;font-variant-numeric:normal;font-variant-alternates:normal;font-variant-east-asian:normal;font-feature-settings:normal;font-variation-settings:normal;text-indent:0;text-align:start;text-decoration:none;text-decoration-line:none;text-decoration-style:solid;text-decoration-color:#000000;letter-spacing:normal;word-spacing:normal;text-transform:none;writing-mode:lr-tb;direction:ltr;text-orientation:mixed;dominant-baseline:auto;baseline-shift:baseline;text-anchor:start;white-space:normal;shape-padding:0;shape-margin:0;inline-size:0;clip-rule:nonzero;display:inline;overflow:visible;visibility:visible;isolation:auto;mix-blend-mode:normal;color-interpolation:sRGB;color-interpolation-filters:linearRGB;solid-color:#000000;solid-opacity:1;vector-effect:none;fill:#ffffff;fill-opacity:1;fill-rule:nonzero;stroke:none;stroke-linecap:round;stroke-linejoin:round;stroke-miterlimit:4;stroke-dasharray:none;stroke-dashoffset:0;stroke-opacity:1.0;color-rendering:auto;image-rendering:auto;shape-rendering:auto;text-rendering:auto;enable-background:accumulate;stop-color:#000000;stop-opacity:1;"
         d="M 16.367188 31.173828 C 16.349961 31.172453 16.331819 31.172033 16.304688 31.175781 C 16.291122 31.177655 16.27581 31.179966 16.255859 31.1875 C 16.245884 31.191267 16.234457 31.196202 16.222656 31.203125 C 16.210856 31.210048 16.18609 31.229962 16.185547 31.230469 C 16.184461 31.231482 16.127319 31.324835 16.126953 31.326172 C 16.12677 31.32684 16.119146 31.380111 16.119141 31.380859 C 16.119135 31.381608 16.122359 31.411044 16.125 31.423828 C 16.135565 31.474963 16.152593 31.497888 16.166016 31.515625 C 16.219705 31.586572 16.25811 31.601952 16.318359 31.642578 C 16.437021 31.722591 16.622376 31.830651 16.857422 31.962891 C 16.861062 31.964939 16.861569 31.96669 16.865234 31.96875 C 16.906021 32.013983 16.932218 31.997563 16.974609 32.052734 C 17.220662 32.372972 17.481408 32.845338 17.755859 33.423828 C 18.313039 34.598252 19.689453 37.371094 19.689453 37.371094 A 0.19845734 0.19845734 0 0 0 19.949219 37.464844 C 19.949219 37.464844 20.695842 37.12145 21.375 36.65625 C 21.714579 36.42365 22.040679 36.162425 22.255859 35.875 C 22.36345 35.731287 22.444018 35.579186 22.474609 35.412109 C 22.5052 35.245033 22.475026 35.062831 22.373047 34.908203 C 22.270304 34.752416 22.10305 34.606518 21.880859 34.4375 C 21.658669 34.268482 21.382376 34.084527 21.070312 33.888672 C 20.446186 33.496962 19.681305 33.063957 18.953125 32.662109 C 18.224945 32.260262 17.532839 31.889624 17.058594 31.623047 C 16.924916 31.547906 16.859729 31.505445 16.765625 31.449219 C 16.632129 31.363356 16.518735 31.185924 16.367188 31.173828 z M 17.615234 32.380859 C 17.989787 32.585609 18.323127 32.767728 18.761719 33.009766 C 19.487338 33.410201 20.247541 33.840615 20.859375 34.224609 C 21.165292 34.416607 21.433675 34.596481 21.640625 34.753906 C 21.847575 34.911331 21.993045 35.054217 22.041016 35.126953 C 22.08975 35.200849 22.098972 35.259938 22.083984 35.341797 C 22.068996 35.423656 22.02108 35.527031 21.9375 35.638672 C 21.77034 35.861955 21.471313 36.110257 21.150391 36.330078 C 20.587624 36.715554 20.09905 36.938626 19.953125 37.007812 C 19.83307 36.7656 18.641413 34.362987 18.115234 33.253906 C 17.945625 32.896403 17.780889 32.658407 17.615234 32.380859 z "
         id="path1830" />
    </g>
    <g
       id="path1624-0"
       style="opacity:1">
      <path
         style="color:#000000;font-style:normal;font-variant:normal;font-weight:normal;font-stretch:normal;font-size:medium;line-height:normal;font-family:sans-serif;font-variant-ligatures:normal;font-variant-position:normal;font-variant-caps:normal;font-variant-numeric:normal;font-variant-alternates:normal;font-variant-east-asian:normal;font-feature-settings:normal;font-variation-settings:normal;text-indent:0;text-align:start;text-decoration:none;text-decoration-line:none;text-decoration-style:solid;text-decoration-color:#000000;letter-spacing:normal;word-spacing:normal;text-transform:none;writing-mode:lr-tb;direction:ltr;text-orientation:mixed;dominant-baseline:auto;baseline-shift:baseline;text-anchor:start;white-space:normal;shape-padding:0;shape-margin:0;inline-size:0;clip-rule:nonzero;display:inline;overflow:visible;visibility:visible;isolation:auto;mix-blend-mode:normal;color-interpolation:sRGB;color-interpolation-filters:linearRGB;solid-color:#000000;solid-opacity:1;vector-effect:none;fill:#000000;fill-opacity:1;fill-rule:nonzero;stroke:none;stroke-width:0.396875;stroke-linecap:round;stroke-linejoin:round;stroke-miterlimit:4;stroke-dasharray:none;stroke-dashoffset:0;stroke-opacity:1.0;color-rendering:auto;image-rendering:auto;shape-rendering:auto;text-rendering:auto;enable-background:accumulate;stop-color:#000000;stop-opacity:1;"
         d="m 20.057835,32.791704 1.646887,-2.273752 c 0,0 -0.261218,-4.193443 -0.733823,-15.135473 l -1.44136,-0.05891 c 0.08608,7.211529 0.462966,12.282452 0.528296,17.468134 z"
         id="path1834" />
      <path
         style="color:#000000;font-style:normal;font-variant:normal;font-weight:normal;font-stretch:normal;font-size:medium;line-height:normal;font-family:sans-serif;font-variant-ligatures:normal;font-variant-position:normal;font-variant-caps:normal;font-variant-numeric:normal;font-variant-alternates:normal;font-variant-east-asian:normal;font-feature-settings:normal;font-variation-settings:normal;text-indent:0;text-align:start;text-decoration:none;text-decoration-line:none;text-decoration-style:solid;text-decoration-color:#000000;letter-spacing:normal;word-spacing:normal;text-transform:none;writing-mode:lr-tb;direction:ltr;text-orientation:mixed;dominant-baseline:auto;baseline-shift:baseline;text-anchor:start;white-space:normal;shape-padding:0;shape-margin:0;inline-size:0;clip-rule:nonzero;display:inline;overflow:visible;visibility:visible;isolation:auto;mix-blend-mode:normal;color-interpolation:sRGB;color-interpolation-filters:linearRGB;solid-color:#000000;solid-opacity:1;vector-effect:none;fill:#ffffff;fill-opacity:1;fill-rule:nonzero;stroke:none;stroke-linecap:round;stroke-linejoin:round;stroke-miterlimit:4;stroke-dasharray:none;stroke-dashoffset:0;stroke-opacity:1.0;color-rendering:auto;image-rendering:auto;shape-rendering:auto;text-rendering:auto;enable-background:accumulate;stop-color:#000000;stop-opacity:1;"
         d="M 19.537109 15.125 A 0.19845734 0.19845734 0 0 0 19.332031 15.326172 C 19.418181 22.543503 19.794146 27.617223 19.859375 32.794922 A 0.19845734 0.19845734 0 0 0 20.21875 32.908203 L 21.865234 30.634766 A 0.19845734 0.19845734 0 0 0 21.902344 30.505859 C 21.902344 30.505859 21.642485 26.314111 21.169922 15.373047 A 0.19845734 0.19845734 0 0 0 20.978516 15.183594 L 19.537109 15.125 z M 19.734375 15.529297 L 20.783203 15.572266 C 21.242989 26.174243 21.499566 30.422544 21.501953 30.460938 L 20.238281 32.205078 C 20.156587 27.252736 19.823042 22.359436 19.734375 15.529297 z "
         id="path1836" />
    </g>
    <g
       id="path1616-8"
       style="opacity:1">
      <path
         style="color:#000000;font-style:normal;font-variant:normal;font-weight:normal;font-stretch:normal;font-size:medium;line-height:normal;font-family:sans-serif;font-variant-ligatures:normal;font-variant-position:normal;font-variant-caps:normal;font-variant-numeric:normal;font-variant-alternates:normal;font-variant-east-asian:normal;font-feature-settings:normal;font-variation-settings:normal;text-indent:0;text-align:start;text-decoration:none;text-decoration-line:none;text-decoration-style:solid;text-decoration-color:#000000;letter-spacing:normal;word-spacing:normal;text-transform:none;writing-mode:lr-tb;direction:ltr;text-orientation:mixed;dominant-baseline:auto;baseline-shift:baseline;text-anchor:start;white-space:normal;shape-padding:0;shape-margin:0;inline-size:0;clip-rule:nonzero;display:inline;overflow:visible;visibility:visible;isolation:auto;mix-blend-mode:normal;color-interpolation:sRGB;color-interpolation-filters:linearRGB;solid-color:#000000;solid-opacity:1;vector-effect:none;fill:#000000;fill-opacity:1;fill-rule:nonzero;stroke:none;stroke-width:0.396875;stroke-linecap:round;stroke-linejoin:round;stroke-miterlimit:4;stroke-dasharray:none;stroke-dashoffset:0;stroke-opacity:1.0;color-rendering:auto;image-rendering:auto;shape-rendering:auto;text-rendering:auto;enable-background:accumulate;stop-color:#000000;stop-opacity:1;"
         d="m 19.309669,36.652228 c 0,0 -0.4511,-4.16056 1.431601,-7.520423 2.070575,-3.695141 2.534557,-11.511785 2.534557,-11.511785 0,0 2.648362,11.062472 -0.972064,19.090026 -0.95954,2.127585 -2.836571,1.622525 -2.994094,-0.05782 -0.157522,-1.680346 0,4e-6 0,4e-6 z"
         id="path1840" />
      <path
         style="color:#000000;font-style:normal;font-variant:normal;font-weight:normal;font-stretch:normal;font-size:medium;line-height:normal;font-family:sans-serif;font-variant-ligatures:normal;font-variant-position:normal;font-variant-caps:normal;font-variant-numeric:normal;font-variant-alternates:normal;font-variant-east-asian:normal;font-feature-settings:normal;font-variation-settings:normal;text-indent:0;text-align:start;text-decoration:none;text-decoration-line:none;text-decoration-style:solid;text-decoration-color:#000000;letter-spacing:normal;word-spacing:normal;text-transform:none;writing-mode:lr-tb;direction:ltr;text-orientation:mixed;dominant-baseline:auto;baseline-shift:baseline;text-anchor:start;white-space:normal;shape-padding:0;shape-margin:0;inline-size:0;clip-rule:nonzero;display:inline;overflow:visible;visibility:visible;isolation:auto;mix-blend-mode:normal;color-interpolation:sRGB;color-interpolation-filters:linearRGB;solid-color:#000000;solid-opacity:1;vector-effect:none;fill:#ffffff;fill-opacity:1;fill-rule:nonzero;stroke:none;stroke-linecap:round;stroke-linejoin:round;stroke-miterlimit:4;stroke-dasharray:none;stroke-dashoffset:0;stroke-opacity:1.0;color-rendering:auto;image-rendering:auto;shape-rendering:auto;text-rendering:auto;enable-background:accumulate;stop-color:#000000;stop-opacity:1;"
         d="M 23.279297 17.421875 A 0.19845734 0.19845734 0 0 0 23.078125 17.607422 C 23.078125 17.607422 22.963127 19.55282 22.589844 21.958984 C 22.216561 24.365149 21.577568 27.234127 20.568359 29.035156 C 18.931862 31.955644 19.050643 34.94446 19.115234 35.917969 C 19.093623 35.919998 19.042968 35.923822 19.042969 35.923828 C 19.042969 35.923828 19.042969 35.925781 19.042969 35.925781 C 19.0431 35.927178 19.04268 35.928564 19.042969 35.931641 C 19.043105 35.933094 19.042799 35.939599 19.042969 35.941406 C 19.04354 35.947496 19.043894 35.949971 19.044922 35.960938 C 19.046844 35.981444 19.049128 36.002542 19.052734 36.041016 C 19.072425 36.25106 19.111328 36.669922 19.111328 36.669922 C 19.111481 36.671553 19.113125 36.672199 19.113281 36.673828 C 19.113346 36.674507 19.113216 36.675103 19.113281 36.675781 A 0.19845734 0.19845734 0 0 0 19.150391 36.765625 C 19.271269 37.615711 19.799984 38.227782 20.482422 38.306641 C 21.19516 38.389001 21.982249 37.904378 22.484375 36.791016 C 26.147801 28.668119 23.46875 17.574219 23.46875 17.574219 A 0.19845734 0.19845734 0 0 0 23.279297 17.421875 z M 23.292969 19.25 C 23.737984 21.424793 25.264948 29.662384 22.123047 36.628906 C 21.665633 37.643129 21.03434 37.970469 20.529297 37.912109 C 20.024253 37.853749 19.57991 37.4019 19.507812 36.632812 C 19.507812 36.632812 19.507813 36.630867 19.507812 36.630859 C 19.507812 36.630859 19.072119 32.515642 20.914062 29.228516 C 21.975429 27.334404 22.604117 24.447427 22.980469 22.021484 C 23.218038 20.490126 23.226439 20.035096 23.292969 19.25 z "
         id="path1842" />
    </g>
    <g
       id="path976-5"
       style="opacity:1">
      <path
         style="color:#000000;font-style:normal;font-variant:normal;font-weight:normal;font-stretch:normal;font-size:medium;line-height:normal;font-family:sans-serif;font-variant-ligatures:normal;font-variant-position:normal;font-variant-caps:normal;font-variant-numeric:normal;font-variant-alternates:normal;font-variant-east-asian:normal;font-feature-settings:normal;font-variation-settings:normal;text-indent:0;text-align:start;text-decoration:none;text-decoration-line:none;text-decoration-style:solid;text-decoration-color:#000000;letter-spacing:normal;word-spacing:normal;text-transform:none;writing-mode:lr-tb;direction:ltr;text-orientation:mixed;dominant-baseline:auto;baseline-shift:baseline;text-anchor:start;white-space:normal;shape-padding:0;shape-margin:0;inline-size:0;clip-rule:nonzero;display:inline;overflow:visible;visibility:visible;isolation:auto;mix-blend-mode:normal;color-interpolation:sRGB;color-interpolation-filters:linearRGB;solid-color:#000000;solid-opacity:1;vector-effect:none;fill:#000000;fill-opacity:1;fill-rule:nonzero;stroke:none;stroke-width:0.396875;stroke-linecap:butt;stroke-linejoin:round;stroke-miterlimit:4;stroke-dasharray:none;stroke-dashoffset:0;stroke-opacity:1.0;color-rendering:auto;image-rendering:auto;shape-rendering:auto;text-rendering:auto;enable-background:accumulate;stop-color:#000000;stop-opacity:1;"
         d="m 18.486207,7.6113212 0.889788,-1.7735536 c 0,0 1.74958,-3.138064 3.717228,-3.1958815 3.354622,-0.098574 3.385432,5.9287784 -0.07253,11.6831849 z"
         id="path1846" />
      <path
         style="color:#000000;font-style:normal;font-variant:normal;font-weight:normal;font-stretch:normal;font-size:medium;line-height:normal;font-family:sans-serif;font-variant-ligatures:normal;font-variant-position:normal;font-variant-caps:normal;font-variant-numeric:normal;font-variant-alternates:normal;font-variant-east-asian:normal;font-feature-settings:normal;font-variation-settings:normal;text-indent:0;text-align:start;text-decoration:none;text-decoration-line:none;text-decoration-style:solid;text-decoration-color:#000000;letter-spacing:normal;word-spacing:normal;text-transform:none;writing-mode:lr-tb;direction:ltr;text-orientation:mixed;dominant-baseline:auto;baseline-shift:baseline;text-anchor:start;white-space:normal;shape-padding:0;shape-margin:0;inline-size:0;clip-rule:nonzero;display:inline;overflow:visible;visibility:visible;isolation:auto;mix-blend-mode:normal;color-interpolation:sRGB;color-interpolation-filters:linearRGB;solid-color:#000000;solid-opacity:1;vector-effect:none;fill:#ffffff;fill-opacity:1;fill-rule:nonzero;stroke:none;stroke-linecap:butt;stroke-linejoin:round;stroke-miterlimit:4;stroke-dasharray:none;stroke-dashoffset:0;stroke-opacity:1.0;color-rendering:auto;image-rendering:auto;shape-rendering:auto;text-rendering:auto;enable-background:accumulate;stop-color:#000000;stop-opacity:1;"
         d="M 23.087891 2.4433594 C 22.000438 2.4753132 21.044052 3.3236921 20.345703 4.1328125 C 19.647354 4.9419329 19.203125 5.7402344 19.203125 5.7402344 A 0.19845734 0.19845734 0 0 0 19.199219 5.7480469 L 18.308594 7.5214844 A 0.19845734 0.19845734 0 0 0 18.322266 7.7226562 L 22.855469 14.435547 A 0.19845734 0.19845734 0 0 0 23.191406 14.427734 C 24.936277 11.52409 25.805212 8.5536639 25.810547 6.2890625 C 25.813214 5.1567618 25.600367 4.1966804 25.148438 3.5078125 C 24.696508 2.8189446 23.985901 2.4169718 23.087891 2.4433594 z M 23.099609 2.8398438 C 23.87891 2.8169444 24.429086 3.1312475 24.818359 3.7246094 C 25.207633 4.3179713 25.41661 5.2075461 25.414062 6.2890625 C 25.409149 8.3750918 24.580778 11.168794 22.988281 13.921875 L 18.716797 7.5976562 L 19.548828 5.9335938 L 19.552734 5.9257812 C 19.556626 5.9188204 19.981178 5.1614616 20.646484 4.390625 C 21.314837 3.616259 22.219414 2.8657075 23.099609 2.8398438 z "
         id="path1848" />
    </g>
    <g
       id="path978-9"
       style="opacity:1">
      <path
         style="color:#000000;font-style:normal;font-variant:normal;font-weight:normal;font-stretch:normal;font-size:medium;line-height:normal;font-family:sans-serif;font-variant-ligatures:normal;font-variant-position:normal;font-variant-caps:normal;font-variant-numeric:normal;font-variant-alternates:normal;font-variant-east-asian:normal;font-feature-settings:normal;font-variation-settings:normal;text-indent:0;text-align:start;text-decoration:none;text-decoration-line:none;text-decoration-style:solid;text-decoration-color:#000000;letter-spacing:normal;word-spacing:normal;text-transform:none;writing-mode:lr-tb;direction:ltr;text-orientation:mixed;dominant-baseline:auto;baseline-shift:baseline;text-anchor:start;white-space:normal;shape-padding:0;shape-margin:0;inline-size:0;clip-rule:nonzero;display:inline;overflow:visible;visibility:visible;isolation:auto;mix-blend-mode:normal;color-interpolation:sRGB;color-interpolation-filters:linearRGB;solid-color:#000000;solid-opacity:1;vector-effect:none;fill:#000000;fill-opacity:1;fill-rule:nonzero;stroke:none;stroke-width:0.396875;stroke-linecap:butt;stroke-linejoin:round;stroke-miterlimit:4;stroke-dasharray:none;stroke-dashoffset:0;stroke-opacity:1.0;color-rendering:auto;image-rendering:auto;shape-rendering:auto;text-rendering:auto;enable-background:accumulate;stop-color:#000000;stop-opacity:1;"
         d="M 22.552085,9.0148711 C 21.929225,6.1471727 21.136146,2.7420484 17.966391,1.7781799 14.266471,1.160844 14.587087,7.1891254 15.085363,9.5915601 l 1.062134,2.8113399 2.635979,2.650601 3.043662,0.530625 z"
         id="path1852" />
      <path
         style="color:#000000;font-style:normal;font-variant:normal;font-weight:normal;font-stretch:normal;font-size:medium;line-height:normal;font-family:sans-serif;font-variant-ligatures:normal;font-variant-position:normal;font-variant-caps:normal;font-variant-numeric:normal;font-variant-alternates:normal;font-variant-east-asian:normal;font-feature-settings:normal;font-variation-settings:normal;text-indent:0;text-align:start;text-decoration:none;text-decoration-line:none;text-decoration-style:solid;text-decoration-color:#000000;letter-spacing:normal;word-spacing:normal;text-transform:none;writing-mode:lr-tb;direction:ltr;text-orientation:mixed;dominant-baseline:auto;baseline-shift:baseline;text-anchor:start;white-space:normal;shape-padding:0;shape-margin:0;inline-size:0;clip-rule:nonzero;display:inline;overflow:visible;visibility:visible;isolation:auto;mix-blend-mode:normal;color-interpolation:sRGB;color-interpolation-filters:linearRGB;solid-color:#000000;solid-opacity:1;vector-effect:none;fill:#ffffff;fill-opacity:1;fill-rule:nonzero;stroke:none;stroke-linecap:butt;stroke-linejoin:round;stroke-miterlimit:4;stroke-dasharray:none;stroke-dashoffset:0;stroke-opacity:1.0;color-rendering:auto;image-rendering:auto;shape-rendering:auto;text-rendering:auto;enable-background:accumulate;stop-color:#000000;stop-opacity:1;"
         d="M 18 1.5820312 C 17.023768 1.4191457 16.262832 1.7068281 15.740234 2.265625 C 15.217636 2.8244219 14.919883 3.6289084 14.755859 4.515625 C 14.427812 6.2890583 14.636503 8.4075656 14.890625 9.6328125 A 0.19845734 0.19845734 0 0 0 14.900391 9.6621094 L 15.960938 12.472656 A 0.19845734 0.19845734 0 0 0 16.005859 12.542969 L 18.642578 15.193359 A 0.19845734 0.19845734 0 0 0 18.75 15.248047 L 21.792969 15.779297 A 0.19845734 0.19845734 0 0 0 22.023438 15.605469 L 22.75 9.0371094 A 0.19845734 0.19845734 0 0 0 22.746094 8.9726562 C 22.434414 7.5376557 22.078646 5.9549877 21.390625 4.59375 C 20.702604 3.2325123 19.666137 2.0874077 18.023438 1.5878906 A 0.19845734 0.19845734 0 0 0 18 1.5820312 z M 17.919922 1.9746094 C 19.438921 2.4410102 20.382406 3.4761634 21.037109 4.7714844 C 21.690522 6.0642516 22.041507 7.6083911 22.351562 9.0351562 L 21.654297 15.353516 L 18.878906 14.869141 L 16.318359 12.292969 L 15.277344 9.5390625 C 15.034043 8.3601828 14.835232 6.2705308 15.146484 4.5878906 C 15.302512 3.7443996 15.586979 3.0100656 16.029297 2.5371094 C 16.468904 2.0670517 17.055031 1.8343561 17.919922 1.9746094 z "
         id="path1854" />
    </g>
    <g
       id="path980-5"
       style="opacity:1">
      <path
         style="color:#000000;font-style:normal;font-variant:normal;font-weight:normal;font-stretch:normal;font-size:medium;line-height:normal;font-family:sans-serif;font-variant-ligatures:normal;font-variant-position:normal;font-variant-caps:normal;font-variant-numeric:normal;font-variant-alternates:normal;font-variant-east-asian:normal;font-feature-settings:normal;font-variation-settings:normal;text-indent:0;text-align:start;text-decoration:none;text-decoration-line:none;text-decoration-style:solid;text-decoration-color:#000000;letter-spacing:normal;word-spacing:normal;text-transform:none;writing-mode:lr-tb;direction:ltr;text-orientation:mixed;dominant-baseline:auto;baseline-shift:baseline;text-anchor:start;white-space:normal;shape-padding:0;shape-margin:0;inline-size:0;clip-rule:nonzero;display:inline;overflow:visible;visibility:visible;isolation:auto;mix-blend-mode:normal;color-interpolation:sRGB;color-interpolation-filters:linearRGB;solid-color:#000000;solid-opacity:1;vector-effect:none;fill:#000000;fill-opacity:1;fill-rule:nonzero;stroke:none;stroke-width:0.396875;stroke-linecap:butt;stroke-linejoin:round;stroke-miterlimit:4;stroke-dasharray:none;stroke-dashoffset:0;stroke-opacity:1.0;color-rendering:auto;image-rendering:auto;shape-rendering:auto;text-rendering:auto;enable-background:accumulate;stop-color:#000000;stop-opacity:1;"
         d="M 11.756536,3.0010963 C 13.282646,9.6444346 14.297226,17.027512 21.780948,14.868744 20.761558,7.0619207 18.052347,4.7627377 11.756536,3.0010963 Z"
         id="path1858" />
      <path
         style="color:#000000;font-style:normal;font-variant:normal;font-weight:normal;font-stretch:normal;font-size:medium;line-height:normal;font-family:sans-serif;font-variant-ligatures:normal;font-variant-position:normal;font-variant-caps:normal;font-variant-numeric:normal;font-variant-alternates:normal;font-variant-east-asian:normal;font-feature-settings:normal;font-variation-settings:normal;text-indent:0;text-align:start;text-decoration:none;text-decoration-line:none;text-decoration-style:solid;text-decoration-color:#000000;letter-spacing:normal;word-spacing:normal;text-transform:none;writing-mode:lr-tb;direction:ltr;text-orientation:mixed;dominant-baseline:auto;baseline-shift:baseline;text-anchor:start;white-space:normal;shape-padding:0;shape-margin:0;inline-size:0;clip-rule:nonzero;display:inline;overflow:visible;visibility:visible;isolation:auto;mix-blend-mode:normal;color-interpolation:sRGB;color-interpolation-filters:linearRGB;solid-color:#000000;solid-opacity:1;vector-effect:none;fill:#ffffff;fill-opacity:1;fill-rule:nonzero;stroke:none;stroke-linecap:butt;stroke-linejoin:round;stroke-miterlimit:4;stroke-dasharray:none;stroke-dashoffset:0;stroke-opacity:1.0;color-rendering:auto;image-rendering:auto;shape-rendering:auto;text-rendering:auto;enable-background:accumulate;stop-color:#000000;stop-opacity:1;"
         d="M 11.773438 2.8027344 A 0.19845734 0.19845734 0 0 0 11.5625 3.0449219 C 12.324112 6.3603096 12.955096 9.8782724 14.363281 12.333984 C 15.067374 13.56184 15.974419 14.529758 17.195312 15.042969 C 18.416206 15.556179 19.934918 15.606965 21.835938 15.058594 A 0.19845734 0.19845734 0 0 0 21.978516 14.84375 C 21.466222 10.920439 20.523214 8.3471524 18.894531 6.5351562 C 17.265848 4.7231601 14.972913 3.6954138 11.810547 2.8105469 A 0.19845734 0.19845734 0 0 0 11.773438 2.8027344 z M 12.033203 3.3125 C 14.966679 4.1642409 17.108373 5.1417022 18.599609 6.8007812 C 20.123999 8.496745 21.027837 10.950769 21.541016 14.705078 C 19.800335 15.17336 18.429145 15.129571 17.349609 14.675781 C 16.227782 14.204214 15.382813 13.315203 14.707031 12.136719 C 13.403993 9.8643708 12.762726 6.5309383 12.033203 3.3125 z "
         id="path1860" />
    </g>
    <g
       id="path944-7"
       style="opacity:1">
      <path
         style="color:#000000;font-style:normal;font-variant:normal;font-weight:normal;font-stretch:normal;font-size:medium;line-height:normal;font-family:sans-serif;font-variant-ligatures:normal;font-variant-position:normal;font-variant-caps:normal;font-variant-numeric:normal;font-variant-alternates:normal;font-variant-east-asian:normal;font-feature-settings:normal;font-variation-settings:normal;text-indent:0;text-align:start;text-decoration:none;text-decoration-line:none;text-decoration-style:solid;text-decoration-color:#000000;letter-spacing:normal;word-spacing:normal;text-transform:none;writing-mode:lr-tb;direction:ltr;text-orientation:mixed;dominant-baseline:auto;baseline-shift:baseline;text-anchor:start;white-space:normal;shape-padding:0;shape-margin:0;inline-size:0;clip-rule:nonzero;display:inline;overflow:visible;visibility:visible;isolation:auto;mix-blend-mode:normal;color-interpolation:sRGB;color-interpolation-filters:linearRGB;solid-color:#000000;solid-opacity:1;vector-effect:none;fill:#000000;fill-opacity:1;fill-rule:nonzero;stroke:none;stroke-width:0.396875;stroke-linecap:butt;stroke-linejoin:round;stroke-miterlimit:4;stroke-dasharray:none;stroke-dashoffset:0;stroke-opacity:1.0;color-rendering:auto;image-rendering:auto;shape-rendering:auto;text-rendering:auto;enable-background:accumulate;stop-color:#000000;stop-opacity:1;"
         d="M 19.167786,15.32357 C 15.28533,11.153344 21.968627,3.2643416 27.913108,3.3527806 26.788594,9.086994 26.631517,17.055678 19.167786,15.32357 Z"
         id="path1864" />
      <path
         style="color:#000000;font-style:normal;font-variant:normal;font-weight:normal;font-stretch:normal;font-size:medium;line-height:normal;font-family:sans-serif;font-variant-ligatures:normal;font-variant-position:normal;font-variant-caps:normal;font-variant-numeric:normal;font-variant-alternates:normal;font-variant-east-asian:normal;font-feature-settings:normal;font-variation-settings:normal;text-indent:0;text-align:start;text-decoration:none;text-decoration-line:none;text-decoration-style:solid;text-decoration-color:#000000;letter-spacing:normal;word-spacing:normal;text-transform:none;writing-mode:lr-tb;direction:ltr;text-orientation:mixed;dominant-baseline:auto;baseline-shift:baseline;text-anchor:start;white-space:normal;shape-padding:0;shape-margin:0;inline-size:0;clip-rule:nonzero;display:inline;overflow:visible;visibility:visible;isolation:auto;mix-blend-mode:normal;color-interpolation:sRGB;color-interpolation-filters:linearRGB;solid-color:#000000;solid-opacity:1;vector-effect:none;fill:#ffffff;fill-opacity:1;fill-rule:nonzero;stroke:none;stroke-linecap:butt;stroke-linejoin:round;stroke-miterlimit:4;stroke-dasharray:none;stroke-dashoffset:0;stroke-opacity:1.0;color-rendering:auto;image-rendering:auto;shape-rendering:auto;text-rendering:auto;enable-background:accumulate;stop-color:#000000;stop-opacity:1;"
         d="M 27.916016 3.1542969 C 24.854915 3.1087554 21.661272 5.0935761 19.699219 7.6191406 C 18.718192 8.8819229 18.042837 10.28514 17.863281 11.65625 C 17.683726 13.02736 18.012214 14.372809 19.023438 15.458984 A 0.19845734 0.19845734 0 0 0 19.123047 15.517578 C 21.021767 15.958214 22.489801 15.784232 23.621094 15.164062 C 24.752387 14.543893 25.532302 13.489397 26.099609 12.21875 C 27.234224 9.6774556 27.54817 6.2424097 28.107422 3.390625 A 0.19845734 0.19845734 0 0 0 27.916016 3.1542969 z M 27.671875 3.5839844 C 27.136359 6.4102822 26.794901 9.6856625 25.736328 12.056641 C 25.190836 13.278428 24.462162 14.250409 23.429688 14.816406 C 22.412278 15.374145 21.075777 15.538751 19.283203 15.136719 C 18.387106 14.147063 18.093028 12.96535 18.257812 11.707031 C 18.4252 10.428841 19.064168 9.082973 20.011719 7.8632812 C 21.855147 5.4904111 24.855639 3.6450905 27.671875 3.5839844 z "
         id="path1866" />
    </g>
  </g>
</svg>
