<?xml version="1.0" encoding="UTF-8" standalone="no"?>
<svg
   xmlns:dc="http://purl.org/dc/elements/1.1/"
   xmlns:cc="http://creativecommons.org/ns#"
   xmlns:rdf="http://www.w3.org/1999/02/22-rdf-syntax-ns#"
   xmlns:svg="http://www.w3.org/2000/svg"
   xmlns="http://www.w3.org/2000/svg"
   xmlns:sodipodi="http://sodipodi.sourceforge.net/DTD/sodipodi-0.dtd"
   xmlns:inkscape="http://www.inkscape.org/namespaces/inkscape"
   width="150"
   height="150"
   viewBox="0 0 39.6875 39.6875"
   version="1.1"
   id="svg896"
   inkscape:version="1.0.2 (e86c870879, 2021-01-15)"
   sodipodi:docname="flower_stroked.svg">
  <defs
     id="defs890" />
  <sodipodi:namedview
     id="base"
     pagecolor="#ffffff"
     bordercolor="#666666"
     borderopacity="1.0"
     inkscape:pageopacity="0.0"
     inkscape:pageshadow="2"
     inkscape:zoom="4.1577726"
     inkscape:cx="65.079395"
     inkscape:cy="75.99225"
     inkscape:document-units="px"
     inkscape:current-layer="layer1"
     inkscape:document-rotation="0"
     showgrid="false"
     units="px"
     inkscape:window-width="1916"
     inkscape:window-height="1041"
     inkscape:window-x="0"
     inkscape:window-y="18"
     inkscape:window-maximized="0" />
  <metadata
     id="metadata893">
    <rdf:RDF>
      <cc:Work
         rdf:about="">
        <dc:format>image/svg+xml</dc:format>
        <dc:type
           rdf:resource="http://purl.org/dc/dcmitype/StillImage" />
        <dc:title></dc:title>
      </cc:Work>
    </rdf:RDF>
  </metadata>
  <g
     inkscape:label="Layer 1"
     inkscape:groupmode="layer"
     id="layer1">
    <path
       style="fill:#000000;stroke:#ffffff;stroke-width:0.396875;stroke-linecap:round;stroke-linejoin:round;stroke-miterlimit:4;stroke-dasharray:none;stroke-opacity:1"
       d="m 19.853737,34.5422 c 0,0 -6.640376,1.637124 -7.516269,2.889587 -0.875896,1.252462 0.862895,-8.47223 5.226327,-5.157789 4.36343,3.314443 2.289942,2.268202 2.289942,2.268202 z"
       id="path1622-7" />
    <path
       style="fill:#000000;stroke:#ffffff;stroke-width:0.396875;stroke-linecap:round;stroke-linejoin:round;stroke-miterlimit:4;stroke-dasharray:none;stroke-opacity:1"
       d="m 21.173453,29.585745 c 0.65209,-3.479804 0.987288,-8.710577 1.12166,-10.598404 0.134373,-1.887827 0.563242,-2.805573 0.771978,-2.086447 0.208736,0.719126 0.489538,4.891812 0.489538,6.216946 0,1.325134 -2.383176,6.467905 -2.383176,6.467905 z"
       id="path1618-4"
       sodipodi:nodetypes="czssc" />
    <path
       style="fill:#000000;stroke:#ffffff;stroke-width:0.396875;stroke-linecap:round;stroke-linejoin:round;stroke-miterlimit:4;stroke-dasharray:none;stroke-opacity:1"
       d="m 19.867052,37.283867 c 0,0 -1.37638,-2.775479 -1.9312,-3.944929 -0.554819,-1.16945 -1.063019,-1.925578 -1.584237,-1.967178 -0.521218,-0.0416 5.253161,2.731284 5.856016,3.645377 0.602854,0.914093 -2.340579,2.26673 -2.340579,2.26673 z"
       id="path1620-2" />
    <path
       style="fill:#000000;stroke:#ffffff;stroke-width:0.396875;stroke-linecap:round;stroke-linejoin:round;stroke-miterlimit:4;stroke-dasharray:none;stroke-opacity:1"
       d="m 20.057835,32.791704 1.646887,-2.273752 c 0,0 -0.261218,-4.193443 -0.733823,-15.135473 l -1.44136,-0.05891 c 0.08608,7.211529 0.462966,12.282452 0.528296,17.468134 z"
       id="path1624-0"
       sodipodi:nodetypes="ccccc" />
    <path
       style="fill:#000000;stroke:#ffffff;stroke-width:0.396875;stroke-linecap:round;stroke-linejoin:round;stroke-miterlimit:4;stroke-dasharray:none;stroke-opacity:1"
       d="m 19.309669,36.652228 c 0,0 -0.4511,-4.16056 1.431601,-7.520423 2.070575,-3.695141 2.534557,-11.511785 2.534557,-11.511785 0,0 2.648362,11.062472 -0.972064,19.090026 -0.95954,2.127585 -2.836571,1.622525 -2.994094,-0.05782 -0.157522,-1.680346 0,4e-6 0,4e-6 z"
       id="path1616-8"
       sodipodi:nodetypes="cscszc" />
    <path
       style="fill:#000000;stroke:#ffffff;stroke-width:0.396875;stroke-linecap:butt;stroke-linejoin:round;stroke-miterlimit:4;stroke-dasharray:none;stroke-opacity:1"
       d="m 18.486207,7.6113212 0.889788,-1.7735536 c 0,0 1.74958,-3.138064 3.717228,-3.1958815 3.354622,-0.098574 3.385432,5.9287784 -0.07253,11.6831849 z"
       id="path976-5"
       sodipodi:nodetypes="ccscc" />
    <path
       style="fill:#000000;stroke:#ffffff;stroke-width:0.396875;stroke-linecap:butt;stroke-linejoin:round;stroke-miterlimit:4;stroke-dasharray:none;stroke-opacity:1"
       d="M 22.552085,9.0148711 C 21.929225,6.1471727 21.136146,2.7420484 17.966391,1.7781799 14.266471,1.160844 14.587087,7.1891254 15.085363,9.5915601 l 1.062134,2.8113399 2.635979,2.650601 3.043662,0.530625 z"
       id="path978-9"
       sodipodi:nodetypes="ccccccc" />
    <path
       style="fill:#000000;stroke:#ffffff;stroke-width:0.396875;stroke-linecap:butt;stroke-linejoin:round;stroke-miterlimit:4;stroke-dasharray:none;stroke-opacity:1"
       d="M 11.756536,3.0010963 C 13.282646,9.6444346 14.297226,17.027512 21.780948,14.868744 20.761558,7.0619207 18.052347,4.7627377 11.756536,3.0010963 Z"
       id="path980-5"
       sodipodi:nodetypes="ccc" />
    <path
       style="fill:#000000;stroke:#ffffff;stroke-width:0.396875;stroke-linecap:butt;stroke-linejoin:round;stroke-miterlimit:4;stroke-dasharray:none;stroke-opacity:1"
       d="M 19.167786,15.32357 C 15.28533,11.153344 21.968627,3.2643416 27.913108,3.3527806 26.788594,9.086994 26.631517,17.055678 19.167786,15.32357 Z"
       id="path944-7"
       sodipodi:nodetypes="ccc" />
  </g>
</svg>
