<?xml version="1.0" encoding="UTF-8" standalone="no"?>
<svg
   xmlns:dc="http://purl.org/dc/elements/1.1/"
   xmlns:cc="http://creativecommons.org/ns#"
   xmlns:rdf="http://www.w3.org/1999/02/22-rdf-syntax-ns#"
   xmlns:svg="http://www.w3.org/2000/svg"
   xmlns="http://www.w3.org/2000/svg"
   xmlns:sodipodi="http://sodipodi.sourceforge.net/DTD/sodipodi-0.dtd"
   xmlns:inkscape="http://www.inkscape.org/namespaces/inkscape"
   width="150"
   height="150"
   viewBox="0 0 150 150"
   version="1.1"
   id="svg8"
   inkscape:version="1.0.2 (e86c870879, 2021-01-15)"
   sodipodi:docname="openskull.svg">
  <defs
     id="defs2" />
  <sodipodi:namedview
     id="base"
     pagecolor="#ffffff"
     bordercolor="#666666"
     borderopacity="1.0"
     inkscape:pageopacity="0.0"
     inkscape:pageshadow="2"
     inkscape:zoom="5.6666667"
     inkscape:cx="48.258854"
     inkscape:cy="70.865015"
     inkscape:document-units="px"
     inkscape:current-layer="layer1"
     inkscape:document-rotation="0"
     showgrid="false"
     units="px"
     inkscape:window-width="1916"
     inkscape:window-height="1041"
     inkscape:window-x="0"
     inkscape:window-y="18"
     inkscape:window-maximized="0" />
  <metadata
     id="metadata5">
    <rdf:RDF>
      <cc:Work
         rdf:about="">
        <dc:format>image/svg+xml</dc:format>
        <dc:type
           rdf:resource="http://purl.org/dc/dcmitype/StillImage" />
        <dc:title></dc:title>
      </cc:Work>
    </rdf:RDF>
  </metadata>
  <g
     inkscape:label="Layer 1"
     inkscape:groupmode="layer"
     id="layer1">
    <path
       id="path10"
       style="fill:#000000;stroke:none;stroke-width:0.832445px;stroke-linecap:butt;stroke-linejoin:miter;stroke-opacity:1"
       d="M 15.564453 31.619141 C 15.738954 42.856614 15.72172 55.093326 18.617188 65.015625 C 18.733846 67.178594 12.792945 68.31356 12.373047 71.699219 C 11.885942 75.626774 19.6979 93.543637 23.132812 93.400391 C 26.324707 93.267279 31.330078 91.029297 31.330078 91.029297 C 34.39094 93.576014 34.904297 106.34766 34.904297 106.34766 C 60.314684 106.1188 85.724325 106.24349 111.13477 106.34766 C 111.13477 106.34766 111.65008 93.576014 114.71094 91.029297 C 114.71094 91.029297 119.71436 93.267279 122.90625 93.400391 C 126.34116 93.543637 134.15313 75.626774 133.66602 71.699219 C 133.24613 68.31356 127.30718 67.178594 127.42383 65.015625 C 130.31931 55.093326 130.30205 42.856614 130.47656 31.619141 L 15.564453 31.619141 z M 46.394531 51.003906 C 55.741503 51.050333 66.452313 51.912967 68.009766 53.322266 C 70.778571 55.827686 69.065015 60.732604 68.123047 63.359375 C 66.994567 66.506257 58.089844 77.298505 47.273438 78.123047 C 44.624551 78.324974 34.722549 75.760929 32.697266 73.082031 C 30.671982 70.403133 30.476661 54.96888 32.009766 52.503906 C 32.680499 51.425481 39.124664 50.967797 46.394531 51.003906 z M 99.644531 51.003906 C 106.9144 50.967797 113.36052 51.425481 114.03125 52.503906 C 115.56436 54.96888 115.36708 70.403133 113.3418 73.082031 C 111.31651 75.760929 101.41647 78.324974 98.767578 78.123047 C 87.951175 77.298505 79.04645 66.506257 77.917969 63.359375 C 76.976006 60.732604 75.260492 55.827686 78.029297 53.322266 C 79.58675 51.912967 90.29756 51.050333 99.644531 51.003906 z M 69.001953 73.691406 C 69.521631 73.653805 70.071281 73.846681 70.658203 74.333984 C 72.137629 75.562302 72.258461 91.478947 70.572266 93.283203 C 69.419737 94.516436 64.050738 94.17312 62.792969 93.259766 C 61.20133 92.103966 60.184084 87.368076 62.013672 84.429688 C 64.261614 80.81941 66.19569 73.894452 69.001953 73.691406 z M 77.037109 73.691406 C 79.843372 73.894452 81.779397 80.81941 84.027344 84.429688 C 85.856932 87.368076 84.837737 92.103966 83.246094 93.259766 C 81.988325 94.17312 76.619322 94.516436 75.466797 93.283203 C 73.780601 91.478947 73.901432 75.562302 75.380859 74.333984 C 75.967781 73.846681 76.517431 73.653805 77.037109 73.691406 z " />
  </g>
</svg>
